<?xml version="1.0" encoding="UTF-8"?>
<!--
    Copyright (c) 2025 CommodityFirst
    Official CommodityFirst logo Full Version with Charcoal icon and text.
    Usage:
    - Use for digital and print in light backgrounds where we can't our Vivid Red for the Iconic Mark.
    - Do not alter proportions, colors, or layout.
    - Contact info@commodityfirst.com for permission on commercial use.
    
    File name: CommodityFirst Logo - FCC.svg
    Author: Tim Haaijman (t.haaijman@commodityfirst.com)
    Version: {{GITHUB_VERSION_ID}}
-->
<svg id="uuid-19eee6a3-7199-49d3-99ad-8879bee874e4" xmlns="http://www.w3.org/2000/svg" viewBox="0 0 2667.48 543.03">
    <defs>
        <style>
            .cf_iconic_square {fill: #1c1c1f;}
            .cf_symbol {fill: #ffffff;}
            .cf_word {fill: #1c1c1f;}
        </style>
    </defs>
    <!-- The vivid red square defining the CommodityFirst iconic mark container -->
    <rect class="cf_iconic_square" width="543.03" height="543.03"/>

    <!-- The curved shape (C), symbolizing cycles, circular economy, and transformation -->
    <path class="cf_symbol" 
        d="M170.28,321.51v-.05c-61.83-2.72-61.79-97.19,0-99.89v-.05h92.75v-60h-95v.12c-137.41,5.99-137.33,213.8,0,219.76v.12h95v-60"/>
    
    <!-- The horizontal white bars (F), symbolizing growth, steps, and progress -->
    <rect class="cf_symbol" x="278.03" y="161.51" width="200" height="60"/>
    <rect class="cf_symbol" x="278.03" y="241.51" width="130" height="60"/>
    <rect class="cf_symbol" x="278.03" y="321.51" width="65" height="60"/>
    
    <!-- CommodityFirst spelled in stylized letters -->
    <path class="cf_word" d="M788.71,312.84c-1.61,22.18-9.79,39.65-24.57,52.39-14.78,12.74-34.25,19.12-58.41,19.12-26.43,0-47.22-8.9-62.38-26.69-15.15-17.79-22.73-42.22-22.73-73.28v-12.6c0-19.82,3.49-37.29,10.48-52.39,6.98-15.1,16.97-26.69,29.95-34.76,12.98-8.07,28.06-12.11,45.24-12.11,23.79,0,42.95,6.37,57.49,19.12,14.54,12.74,22.94,30.63,25.21,53.67h-42.48c-1.04-13.31-4.74-22.96-11.12-28.96-6.37-5.99-16.07-8.99-29.1-8.99-14.16,0-24.76,5.08-31.79,15.22-7.03,10.15-10.64,25.89-10.83,47.22v15.58c0,22.28,3.37,38.56,10.12,48.85,6.75,10.29,17.39,15.43,31.93,15.43,13.12,0,22.92-3,29.38-8.99,6.46-5.99,10.17-15.27,11.12-27.83h42.48Z"/>
    <path class="cf_word" d="M807.54,303.49c0-15.2,2.92-28.75,8.78-40.64,5.85-11.89,14.28-21.1,25.28-27.61,11-6.51,23.77-9.77,38.3-9.77,20.67,0,37.55,6.33,50.62,18.97,13.07,12.65,20.37,29.83,21.88,51.54l.28,10.48c0,23.51-6.56,42.36-19.68,56.57-13.12,14.21-30.73,21.31-52.82,21.31s-39.72-7.08-52.89-21.24c-13.17-14.16-19.75-33.42-19.75-57.77v-1.84ZM848.46,306.4c0,14.56,2.74,25.69,8.21,33.4,5.47,7.71,13.31,11.56,23.51,11.56s17.65-3.81,23.22-11.42c5.57-7.61,8.35-19.78,8.35-36.52,0-14.28-2.79-25.34-8.35-33.19-5.57-7.85-13.41-11.77-23.51-11.77s-17.75,3.9-23.22,11.7c-5.48,7.8-8.21,19.88-8.21,36.23Z"/>
    <path class="cf_word" d="M1016.26,228.3l1.27,17.13c10.85-13.31,25.53-19.97,44.04-19.97,19.73,0,33.28,7.79,40.64,23.36,10.76-15.58,26.1-23.36,46.02-23.36,16.61,0,28.98,4.84,37.1,14.51,8.12,9.68,12.18,24.24,12.18,43.68v97.85h-41.06v-97.71c0-8.68-1.7-15.03-5.1-19.04-3.4-4.01-9.39-6.02-17.98-6.02-12.27,0-20.77,5.85-25.49,17.56l.14,105.21h-40.92v-97.56c0-8.87-1.75-15.29-5.24-19.26-3.49-3.96-9.44-5.95-17.84-5.95-11.61,0-20.01,4.81-25.21,14.44v108.33h-40.92v-153.21h38.37Z"/>
    <path class="cf_word" d="M1267.32,228.3l1.27,17.13c10.85-13.31,25.54-19.97,44.04-19.97,19.73,0,33.28,7.79,40.64,23.36,10.76-15.58,26.1-23.36,46.02-23.36,16.61,0,28.98,4.84,37.1,14.51,8.12,9.68,12.18,24.24,12.18,43.68v97.85h-41.06v-97.71c0-8.68-1.7-15.03-5.1-19.04-3.4-4.01-9.39-6.02-17.98-6.02-12.27,0-20.77,5.85-25.49,17.56l.14,105.21h-40.92v-97.56c0-8.87-1.75-15.29-5.24-19.26-3.49-3.96-9.44-5.95-17.84-5.95-11.61,0-20.01,4.81-25.21,14.44v108.33h-40.92v-153.21h38.37Z"/>
    <path class="cf_word" d="M1473.64,303.49c0-15.2,2.92-28.75,8.78-40.64,5.85-11.89,14.28-21.1,25.28-27.61,11-6.51,23.77-9.77,38.3-9.77,20.67,0,37.55,6.33,50.62,18.97,13.07,12.65,20.37,29.83,21.88,51.54l.28,10.48c0,23.51-6.56,42.36-19.68,56.57-13.12,14.21-30.73,21.31-52.82,21.31s-39.72-7.08-52.89-21.24c-13.17-14.16-19.75-33.42-19.75-57.77v-1.84ZM1514.56,306.4c0,14.56,2.74,25.69,8.21,33.4,5.47,7.71,13.31,11.56,23.51,11.56s17.65-3.81,23.22-11.42c5.57-7.61,8.35-19.78,8.35-36.52,0-14.28-2.79-25.34-8.35-33.19-5.57-7.85-13.41-11.77-23.51-11.77s-17.75,3.9-23.22,11.7c-5.48,7.8-8.21,19.88-8.21,36.23Z"/>
    <path class="cf_word" d="M1637.61,303.77c0-23.88,5.36-42.91,16.07-57.07,10.71-14.16,25.37-21.24,43.97-21.24,14.91,0,27.23,5.57,36.96,16.71v-78.16h41.06v217.5h-36.96l-1.98-16.28c-10.2,12.74-23.32,19.12-39.37,19.12-18.03,0-32.5-7.1-43.4-21.31-10.9-14.21-16.36-33.96-16.36-59.26ZM1678.53,306.82c0,14.37,2.5,25.39,7.5,33.04,5,7.66,12.27,11.49,21.81,11.49,12.65,0,21.57-5.34,26.76-16.03v-60.56c-5.1-10.68-13.93-16.03-26.48-16.03-19.73,0-29.59,16.03-29.59,48.08Z"/>
    <path class="cf_word" d="M1807.11,188.65c0-6.14,2.05-11.19,6.16-15.15,4.11-3.96,9.7-5.95,16.78-5.95s12.55,1.98,16.71,5.95c4.15,3.96,6.23,9.02,6.23,15.15s-2.1,11.33-6.3,15.29c-4.2,3.96-9.75,5.95-16.64,5.95s-12.44-1.98-16.64-5.95c-4.2-3.96-6.3-9.06-6.3-15.29ZM1850.58,381.51h-41.06v-153.21h41.06v153.21Z"/>
    <path class="cf_word" d="M1933.27,190.63v37.67h26.2v30.02h-26.2v76.46c0,5.66,1.08,9.72,3.26,12.18,2.17,2.46,6.32,3.68,12.46,3.68,4.53,0,8.54-.33,12.04-.99v31.01c-8.02,2.45-16.28,3.68-24.78,3.68-28.7,0-43.33-14.49-43.9-43.47v-82.55h-22.37v-30.02h22.37v-37.67h40.92Z"/>
    <path class="cf_word" d="M2039.48,323.6l28.32-95.3h43.9l-61.6,177-3.4,8.07c-9.16,20.01-24.26,30.02-45.31,30.02-5.95,0-11.99-.9-18.12-2.69v-31.01l6.23.14c7.74,0,13.52-1.18,17.35-3.54,3.82-2.36,6.82-6.28,8.99-11.75l4.81-12.6-53.67-153.64h44.04l28.46,95.3Z"/>
    <path class="cf_word" d="M2251.74,285.08h-96.15v96.43h-17.42v-206.17h127.72v14.73h-110.31v80.29h96.15v14.73Z"/>
    <path class="cf_word" d="M2296.34,184.05c0-3.19,1.04-5.89,3.12-8.09,2.08-2.2,4.91-3.31,8.5-3.31s6.44,1.1,8.57,3.31c2.12,2.2,3.19,4.9,3.19,8.09s-1.06,5.86-3.19,8.02c-2.12,2.16-4.98,3.24-8.57,3.24s-6.42-1.08-8.5-3.24c-2.08-2.16-3.12-4.83-3.12-8.02ZM2316.31,381.51h-16.99v-153.21h16.99v153.21Z"/>
    <path class="cf_word" d="M2433.13,242.74c-3.59-.66-7.41-.99-11.47-.99-10.57,0-19.52,2.95-26.83,8.85-7.32,5.9-12.53,14.47-15.65,25.7v105.21h-16.85v-153.21h16.57l.28,24.36c8.97-18.12,23.36-27.19,43.19-27.19,4.72,0,8.45.62,11.19,1.84l-.42,15.43Z"/>
    <path class="cf_word" d="M2551.65,342.57c0-8.4-3.38-15.15-10.12-20.25-6.75-5.1-16.92-9.08-30.51-11.96-13.59-2.88-24.14-6.18-31.65-9.91-7.51-3.73-13.08-8.28-16.71-13.67-3.64-5.38-5.45-11.89-5.45-19.54,0-12.08,5.05-22.07,15.15-29.95,10.1-7.88,23.03-11.82,38.8-11.82,17.08,0,30.8,4.23,41.13,12.67,10.34,8.45,15.51,19.47,15.51,33.06h-16.99c0-8.97-3.75-16.43-11.26-22.37-7.5-5.95-16.97-8.92-28.39-8.92s-20.08,2.48-26.83,7.43c-6.75,4.96-10.12,11.4-10.12,19.33s2.81,13.57,8.42,17.77c5.62,4.2,15.86,8.05,30.73,11.54,14.87,3.49,26.01,7.22,33.42,11.19,7.41,3.96,12.91,8.73,16.5,14.3,3.59,5.57,5.38,12.32,5.38,20.25,0,12.93-5.22,23.27-15.65,31.01-10.43,7.74-24.05,11.61-40.85,11.61-17.84,0-32.31-4.32-43.4-12.96-11.09-8.64-16.64-19.56-16.64-32.78h16.99c.66,9.91,4.84,17.63,12.53,23.15,7.69,5.52,17.86,8.28,30.51,8.28,11.8,0,21.33-2.6,28.6-7.79,7.27-5.19,10.9-11.75,10.9-19.68Z"/>
    <path class="cf_word" d="M2633.07,189.08v39.22h31.72v13.88h-31.72v102.21c0,8.51,1.53,14.84,4.6,19,3.07,4.16,8.19,6.24,15.36,6.24,2.83,0,7.41-.47,13.74-1.42l.71,13.76c-4.44,1.59-10.48,2.38-18.12,2.38-11.61,0-20.06-3.37-25.35-10.12-5.29-6.75-7.93-16.68-7.93-29.81v-102.24h-28.18v-13.88h28.18v-39.22h16.99Z"/>
</svg>